<svg xmlns="http://www.w3.org/2000/svg" viewBox="0 0 98.49 60"><defs><style>.cls-1{fill:#2f4fd3;}.cls-2{fill:#3675f4;}</style></defs><g id="Capa_2" data-name="Capa 2"><g id="Capa_1-2" data-name="Capa 1"><polygon class="cls-1" points="63.54 10.07 25.21 10.07 25.21 0 56.62 0 63.54 10.07"/><polygon class="cls-2" points="56.62 0 34.98 56.39 44.38 60 63.54 10.07 56.62 0"/><rect class="cls-2" x="19.98" y="15" width="15" height="5"/><rect class="cls-2" x="19.98" y="35" width="15" height="5"/><rect class="cls-2" x="19.98" y="25" width="10" height="5"/><rect class="cls-2" x="9.98" y="25" width="25" height="5" transform="translate(-5.02 49.98) rotate(-90)"/><polygon class="cls-2" points="15 20 1.94 20 0 15 15 15 15 20"/><polygon class="cls-2" points="15 40 0 40 0 35 13.06 35 15 40"/><polygon class="cls-2" points="5.38 15 14.98 40 9.62 40 0.02 15 5.38 15"/><rect class="cls-2" x="63.54" y="15" width="15" height="5"/><rect class="cls-2" x="63.54" y="35" width="15" height="5"/><rect class="cls-2" x="63.54" y="25" width="10" height="5"/><rect class="cls-2" x="53.54" y="25" width="25" height="5" transform="translate(38.54 93.54) rotate(-90)"/><polygon class="cls-2" points="88.9 15 98.5 40 93.14 40 83.54 15 88.9 15"/><rect class="cls-2" x="83.49" y="25" width="25" height="5" transform="translate(68.49 123.49) rotate(-90)"/><rect class="cls-2" x="73.54" y="25" width="25" height="5" transform="translate(58.54 113.54) rotate(-90)"/></g></g></svg>